<svg height="512" viewBox="0 0 48 48" xmlns="http://www.w3.org/2000/svg"><path fill="#e7b609" d="M38 13a3 3 0 0 0 3-3V3a3 3 0 0 0-6 0v7a3 3 0 0 0 3 3zM10 13a3 3 0 0 0 3-3V3a3 3 0 0 0-6 0v7a3 3 0 0 0 3 3zM0 47a1 1 0 0 0 1 1h46a1 1 0 0 0 1-1V20.34H0zm13.91-16.55a1 1 0 0 1 .81-.68l5.9-.86 2.64-5.35a1 1 0 0 1 .9-.56 1 1 0 0 1 .9.56l2.64 5.35 5.91.85a1 1 0 0 1 .81.68 1 1 0 0 1-.26 1l-4.27 4.17 1 5.88a1 1 0 0 1-.39 1 1 1 0 0 1-1.06.08l-5.27-2.77-5.28 2.78a1 1 0 0 1-1.06-.08 1 1 0 0 1-.4-1l1-5.89-4.28-4.16a1 1 0 0 1-.24-1z"/><path fill="#e7b609" d="M47 7h-4v3a5 5 0 0 1-10 0V7H15v3a5 5 0 0 1-10 0V7H1a1 1 0 0 0-1 1v10.34h48V8a1 1 0 0 0-1-1z"/></svg>