<svg xmlns="http://www.w3.org/2000/svg" xml:space="preserve" viewBox="0 0 53.63 53.63" fill="#fff"><path d="M48.83 15.33C41.75 3.7 31.08 11.8 31.08 11.8c-.7.53-1.97.96-2.84.96H25.4a5.5 5.5 0 0 1-2.84-.95S11.88 3.7 4.8 15.34C-2.3 26.97.57 39.64.57 39.64c.5 3.1 2.15 5.17 5.26 4.91 3.1-.26 9.83-8.35 9.83-8.35a3.84 3.84 0 0 1 2.58-1.22h17.14c.86 0 2.03.55 2.58 1.21 0 0 6.74 8.1 9.84 8.36 3.1.26 4.76-1.81 5.26-4.91 0 0 2.85-12.67-4.23-24.3zm-28.46 9.48H16.7v3.54s-.78.6-1.98.58c-1.2-.02-1.75-.65-1.75-.65V24.8H9.5s-.43-.45-.55-1.62c-.11-1.16.48-2.11.48-2.11h3.68v-3.67s.75-.4 1.84-.38c1.09.04 1.89.45 1.89.45l-.02 3.6h3.47s.6.78.66 1.72c.05.94-.58 2-.58 2zm16.86 4.03a2.9 2.9 0 1 1 0-5.8 2.9 2.9 0 0 1 0 5.8zm0-8a2.9 2.9 0 1 1-.01-5.8 2.9 2.9 0 0 1 0 5.8zm7.24 4.3a2.9 2.9 0 1 1 0-5.81 2.9 2.9 0 0 1 0 5.8z"/></svg>