<svg xmlns="http://www.w3.org/2000/svg" viewBox="0 0 100 100" fill="#fff"><path d="M63.83 67.72c.48 1.44.9 4.25.48 6.9 3.18.33 6.45.36 9.27.36 6.83 0 19.1-.27 21.08-5.4.56-1.46.32-3.78 0-4.73-1.24-3.7-6.2-6.02-9.73-7.57-1.38-.6-5.21-1.63-5.67-3.38-.73-2.75 2.02-4.85 3.24-7.02a21.14 21.14 0 0 0 2.57-7.97c.75-9.3-4.95-14.73-13.11-13.78-5.94.68-9.48 5.1-9.86 10.8-.4 5.81 1.76 10.1 4.05 13.24 1 1.38 2.05 2.27 1.9 3.92-.2 1.96-2.3 2.5-3.79 3.11-1.78.71-3.69 1.8-4.6 2.3-.77.43-1.57.88-2.34 1.36 2.83 1.97 5.4 4.53 6.5 7.86zM5.4 69.44c-2.2 8.07 5.19 10.51 11.29 11.64 5.23.97 11.12 1.04 15.98 1.04 8.77 0 24.56-.35 27.1-6.95.73-1.87.41-4.85 0-6.08-1.6-4.76-7.97-7.73-12.5-9.73-1.79-.78-6.71-2.1-7.3-4.34-.93-3.54 2.6-6.24 4.17-9.03a27.2 27.2 0 0 0 3.3-10.25c.9-11.05-5.3-17.86-14.55-17.86-.75 0-1.52.04-2.3.14-7.64.87-12.2 6.56-12.69 13.89-.5 7.47 2.27 12.98 5.21 17.03 1.29 1.76 2.64 2.9 2.44 5.03-.25 2.53-2.94 3.23-4.87 4-2.28.92-4.74 2.31-5.9 2.95-4 2.22-8.4 4.88-9.39 8.52z"/></svg>