<svg xmlns="http://www.w3.org/2000/svg" viewBox="0 0 512 512" fill="#fff"><path d="M512 346.5c0-63.54-36.45-120.24-91.04-147.82-1.7 121.82-100.46 220.59-222.28 222.28C226.26 475.56 282.96 512 346.5 512a164.9 164.9 0 0 0 84.21-23l80.57 22.28-22.29-80.57A164.9 164.9 0 0 0 512 346.5zm0 0"/><path d="M391 195.5C391 87.7 303.3 0 195.5 0S0 87.7 0 195.5a194.9 194.9 0 0 0 27.1 99.37L.73 390.27l95.4-26.38A194.9 194.9 0 0 0 195.5 391C303.3 391 391 303.3 391 195.5zM165.5 150h-30c0-33.09 26.91-60 60-60s60 26.91 60 60c0 16.8-7.1 32.93-19.51 44.28L210.5 217.6V241h-30v-36.6l35.23-32.26A29.7 29.7 0 0 0 225.5 150c0-16.54-13.46-30-30-30s-30 13.46-30 30zm15 121h30v30h-30zm0 0"/></svg>