<svg xmlns="http://www.w3.org/2000/svg" viewBox="0 0 512 512" fill="#fff"><path d="M214.46 161.27c-13.61 0-26.4 5.3-36.03 14.93-9.63 9.62-14.93 22.42-14.93 36.03s5.3 26.41 14.93 36.04l65.86 65.86c3.13 3.13 7.29 4.85 11.71 4.85s8.58-1.72 11.71-4.85l65.86-65.86c9.63-9.63 14.93-22.43 14.93-36.04s-5.3-26.4-14.93-36.03c-9.62-9.63-22.42-14.93-36.03-14.93s-26.4 5.3-36.04 14.93l-4.4 4.4c-.37.37-.8.45-1.1.45s-.73-.08-1.1-.45l-4.4-4.4a50.63 50.63 0 0 0-36.04-14.93zm53.25 29.93 4.4-4.4a35.73 35.73 0 0 1 25.43-10.53c9.6 0 18.64 3.74 25.43 10.53s10.53 15.83 10.53 25.43-3.74 18.64-10.53 25.43l-65.87 65.86c-.38.38-.8.46-1.1.46s-.73-.08-1.1-.46l-65.87-65.86c-6.8-6.8-10.53-15.82-10.53-25.43s3.74-18.63 10.53-25.43a35.72 35.72 0 0 1 25.43-10.53c9.6 0 18.63 3.74 25.43 10.53l4.4 4.4a16.58 16.58 0 0 0 23.42 0z"/><path d="m491.62 120.46-84.8-22.73V72a27.52 27.52 0 0 0-27.5-27.48H132.68A27.52 27.52 0 0 0 105.18 72v25.73l-84.8 22.73A27.52 27.52 0 0 0 .94 154.12l50.6 188.85a7.5 7.5 0 1 0 14.49-3.88l-50.6-188.85a12.5 12.5 0 0 1 8.83-15.3l80.92-21.68V227.9a7.5 7.5 0 1 0 15 0V72a12.5 12.5 0 0 1 12.5-12.48h246.65A12.5 12.5 0 0 1 391.82 72v336.25a12.5 12.5 0 0 1-12.5 12.5H132.68a12.5 12.5 0 0 1-12.49-12.5V260.13a7.5 7.5 0 1 0-15 0v148.13a27.52 27.52 0 0 0 27.5 27.5h37.43l-60.88 16.3c-3.22.87-6.59.43-9.48-1.24s-4.95-4.36-5.82-7.58L74.5 370.68a7.5 7.5 0 0 0-14.5 3.89l19.44 72.54a27.3 27.3 0 0 0 12.81 16.69 27.33 27.33 0 0 0 20.86 2.75L225.6 436.4a7.49 7.49 0 0 0 1.64-.67h57.04c.32.14.66.27 1 .36l113.62 30.45a27.33 27.33 0 0 0 20.86-2.75 27.31 27.31 0 0 0 12.8-16.7l53.66-200.23a7.5 7.5 0 1 0-14.5-3.88l-53.64 200.24a12.41 12.41 0 0 1-5.82 7.58 12.4 12.4 0 0 1-9.48 1.25l-60.88-16.32h37.44a27.52 27.52 0 0 0 27.49-27.49V144.32l56.24 15.07a7.5 7.5 0 1 0 3.88-14.49l-60.12-16.11v-15.53l80.92 21.68a12.5 12.5 0 0 1 8.83 15.3l-16.37 61.11a7.5 7.5 0 0 0 14.48 3.88l16.38-61.1a27.52 27.52 0 0 0-19.44-33.67z"/><path d="M80.66 193a7.5 7.5 0 0 0 12.19-8.75l-29.49-41.07-.13-.17a8.56 8.56 0 0 0-9.05-3.09 8.56 8.56 0 0 0-6.3 7.2l-.01.2-5.16 50.34a7.5 7.5 0 0 0 14.92 1.53l.76-7.4 17.95-4.8zm-20.64-17.17 1.04-10.13 5.93 8.26zM182.45 80.12a8.7 8.7 0 0 0-8.16-5.62h-.01a8.7 8.7 0 0 0-8.14 5.6l-20.47 53.74a7.5 7.5 0 1 0 14.02 5.34l3.26-8.56h22.53l3.22 8.53a7.5 7.5 0 1 0 14.03-5.3zm-13.79 35.5 5.6-14.7 5.55 14.7zM352.3 341.07l-3.25 8.56h-22.53l-3.21-8.53a7.5 7.5 0 1 0-14.04 5.3l20.28 53.73.08.2a8.7 8.7 0 0 0 8.08 5.42h.01a8.7 8.7 0 0 0 8.14-5.6l20.47-53.73a7.5 7.5 0 0 0-14.02-5.34zm-20.11 23.56h11.15l-5.6 14.7zM369.32 81.94a7.5 7.5 0 0 0-7.5-7.5h-100.8a7.5 7.5 0 1 0 0 15h100.8a7.5 7.5 0 0 0 7.5-7.5zM142.68 398.24a7.5 7.5 0 0 0 7.5 7.5h100.8a7.5 7.5 0 1 0 0-15h-100.8a7.5 7.5 0 0 0-7.5 7.5z"/></svg>