<svg width="668" height="668" viewBox="0 0 668 668" fill="none" xmlns="http://www.w3.org/2000/svg">
<path d="M334 0.666748C150 0.666748 0.666748 150 0.666748 334C0.666748 518 150 667.333 334 667.333C518 667.333 667.333 518 667.333 334C667.333 150 518 0.666748 334 0.666748ZM334 100.667C389.333 100.667 434 145.333 434 200.667C434 256 389.333 300.667 334 300.667C278.667 300.667 234 256 234 200.667C234 145.333 278.667 100.667 334 100.667ZM334 574C250.667 574 177 531.333 134 466.667C135 400.333 267.333 364 334 364C400.333 364 533 400.333 534 466.667C491 531.333 417.333 574 334 574Z" fill="#ef679a"/>
</svg>
