<svg width="800" height="800" viewBox="0 0 800 800" fill="none" xmlns="http://www.w3.org/2000/svg">
<path d="M133.5 536.5C108.167 562.988 91.7365 596.724 86.5 633C83.31 651.148 82.1362 669.594 83 688V717H123C137.755 716.955 152.478 715.616 167 713C203.336 707.961 237.13 691.502 263.5 666C278.97 648.607 286.919 625.794 285.607 602.554C284.295 579.314 273.829 557.541 256.5 542C240.789 525.18 219.115 515.185 196.122 514.157C173.129 513.129 150.649 521.15 133.5 536.5ZM220.5 623C203.191 639.396 181.139 649.896 157.5 653H146.5V642C149.603 618.361 160.104 596.309 176.5 579C179.884 576.259 184.148 574.838 188.5 575C192.952 575.179 197.323 576.244 201.358 578.132C205.393 580.021 209.011 582.696 212 586C218.001 589.807 222.259 595.827 223.851 602.754C225.442 609.68 224.238 616.955 220.5 623ZM732.5 112C732.245 100.278 727.475 89.1065 719.184 80.8158C710.893 72.525 699.722 67.7548 688 67.4999C629.465 62.7206 570.567 69.7757 514.816 88.2447C459.066 106.714 407.604 136.218 363.5 175L282 270L162 245C153.815 243.217 145.314 243.519 137.277 245.877C129.239 248.236 121.923 252.577 116 258.5L82 292.5C76.8108 297.791 72.8627 304.17 70.4414 311.174C68.0201 318.178 67.1862 325.634 68 333C68.7371 340.459 71.1419 347.658 75.0366 354.062C78.9312 360.467 84.216 365.914 90.5 370L193.5 436L200 440L360 602.5L364 606.5L430 709.5C434.086 715.784 439.533 721.069 445.938 724.963C452.342 728.858 459.541 731.263 467 732H472.5C485.617 731.945 498.187 726.737 507.5 717.5L541.5 683.5C547.423 677.577 551.764 670.261 554.123 662.223C556.481 654.186 556.783 645.684 555 637.5L530 518L622 439C661.533 394.773 691.704 343 710.695 286.802C729.685 230.603 737.103 171.142 732.5 112ZM155.5 307.5L221.5 321.5L189.5 359L139.5 325.5L155.5 307.5ZM474.5 662.5L441 612.5L478.5 580.5L492.5 646.5L474.5 662.5ZM580 393L396 550L250 404L407 220C479.743 157.142 573.997 124.888 670 130C674.903 225.973 642.675 320.152 580 393Z" fill="#ef679a"/>
<path d="M556.5 331.5C561.963 325.763 566.226 318.992 569.038 311.586C571.85 304.18 573.154 296.286 572.875 288.369C572.595 280.452 570.737 272.67 567.41 265.48C564.084 258.29 559.354 251.837 553.5 246.5C548.333 240.372 541.951 235.382 534.758 231.844C527.565 228.306 519.717 226.298 511.708 225.946C503.7 225.594 495.706 226.906 488.23 229.798C480.755 232.691 473.96 237.102 468.274 242.753C462.589 248.403 458.137 255.171 455.198 262.629C452.26 270.087 450.899 278.073 451.202 286.083C451.505 294.093 453.466 301.954 456.959 309.168C460.453 316.383 465.404 322.795 471.5 328C476.84 333.829 483.28 338.545 490.449 341.878C497.617 345.21 505.374 347.093 513.273 347.418C521.171 347.744 529.056 346.505 536.475 343.773C543.893 341.041 550.699 336.87 556.5 331.5Z" fill="#ef679a"/>
</svg>
