<svg width="800" height="800" viewBox="0 0 800 800" fill="none" xmlns="http://www.w3.org/2000/svg">
<g clip-path="url(#clip0_10_2)">
<path fill-rule="evenodd" clip-rule="evenodd" d="M353.17 150.099C354.22 150.034 355.275 150 356.34 150H750C777.615 150 800 172.386 800 200V350C800 377.615 777.615 400 750 400C722.385 400 700 377.615 700 350V250H356.34C355.275 250 354.22 249.967 353.17 249.901C352.12 249.967 351.065 250 350 250H170.711L235.355 314.645C254.881 334.17 254.881 365.83 235.355 385.355C215.829 404.88 184.171 404.88 164.645 385.355L14.6445 235.355C-4.8815 215.829 -4.8815 184.171 14.6445 164.645L164.645 14.6445C184.171 -4.8815 215.829 -4.8815 235.355 14.6445C254.881 34.171 254.881 65.829 235.355 85.3555L170.711 150H350C351.065 150 352.12 150.034 353.17 150.099ZM629.29 650H50C22.386 650 0 625.25 0 597.635V450C0 422.385 22.386 400 50 400C77.614 400 100 422.385 100 450V550H629.29L564.645 485.355C545.12 465.83 545.12 434.17 564.645 414.645C584.17 395.12 615.83 395.12 635.355 414.645L785.355 564.645C804.88 584.17 804.88 615.83 785.355 635.355L635.355 785.355C615.83 804.88 584.17 804.88 564.645 785.355C545.12 765.83 545.12 734.17 564.645 714.645L629.29 650Z" fill="#ef679a"/>
</g>
<defs>
<clipPath id="clip0_10_2">
<rect width="800" height="800" fill="white"/>
</clipPath>
</defs>
</svg>
