<svg width="800" height="800" viewBox="0 0 800 800" fill="none" xmlns="http://www.w3.org/2000/svg">
<path d="M590.667 368.333C590.667 262.847 505.228 177.333 399.833 177.333C294.439 177.333 209 262.847 209 368.333V495.333C209 600.82 294.439 686.333 399.833 686.333C505.228 686.333 590.667 600.82 590.667 495.333V368.333Z" stroke="#ef679a" stroke-width="63.6667" stroke-miterlimit="10"/>
<path d="M591 304.667H654.667C679.951 304.667 704.199 314.711 722.078 332.589C739.956 350.468 750 374.716 750 400V463.667C750 488.951 739.956 513.199 722.078 531.078C704.199 548.956 679.951 559 654.667 559H591V304.667Z" stroke="#ef679a" stroke-width="63.6667" stroke-miterlimit="10"/>
<path d="M209 559H145.333C120.049 559 95.801 548.956 77.9225 531.078C60.044 513.199 50 488.951 50 463.667L50 400C50 387.481 52.4659 375.084 57.2568 363.518C62.0478 351.951 69.07 341.442 77.9225 332.589C86.775 323.737 97.2845 316.714 108.851 311.923C120.417 307.133 132.814 304.667 145.333 304.667H209L209 559Z" stroke="#ef679a" stroke-width="63.6667" stroke-miterlimit="10"/>
<path d="M145.333 304.667C145.333 237.125 172.164 172.349 219.924 124.59C267.683 76.8309 332.458 50 400 50C467.542 50 532.317 76.8309 580.077 124.59C627.836 172.349 654.667 237.125 654.667 304.667" stroke="#ef679a" stroke-width="63.6667" stroke-miterlimit="10"/>
<path d="M654.667 559V592.333C654.578 634.533 637.753 674.975 607.881 704.784C578.01 734.592 537.533 751.333 495.333 751.333" stroke="#ef679a" stroke-width="63.6667" stroke-miterlimit="10"/>
</svg>
