<svg width="785" height="508" viewBox="0 0 785 508" fill="none" xmlns="http://www.w3.org/2000/svg">
<path d="M450.559 435.613L450.983 435.09C462.832 445.471 477.573 452.631 493.839 455.206L498.764 455.839L498.761 507.316C468.437 505.446 440.785 493.7 418.982 475.255L414.7 471.477L450.559 435.613ZM566.013 432.942L600.971 467.928C601.427 468.384 601.921 468.777 602.455 469.1C581.079 489.778 552.982 503.551 521.759 506.826L515.87 507.316L515.868 455.84C535.202 453.921 552.641 445.563 566.013 432.942ZM421.787 379.285L422.205 379.244C423.634 393.708 428.666 407.112 436.391 418.548L439.413 422.743L438.463 423.517L402.852 459.136C385.605 438.775 374.203 413.307 371.238 385.319L370.732 379.284L421.787 379.285ZM592.429 379.244L592.847 379.285L643.902 379.284C642.219 406.582 632.534 431.714 617.163 452.364L613.781 456.719L613.066 455.832L577.238 420.003C585.531 408.255 590.939 394.325 592.429 379.244ZM507.317 302.308C545.107 302.308 575.741 332.942 575.741 370.732C575.741 408.521 545.107 439.155 507.317 439.155C469.528 439.155 438.893 408.521 438.893 370.732C438.893 332.942 469.528 302.308 507.317 302.308ZM574.443 0C603.284 0 626.665 23.4968 626.665 52.4813L626.654 69.034L435.184 69.0543C416.918 69.0543 401.937 83.1917 400.485 101.172L400.369 104.042V179.353C400.369 197.71 414.437 212.765 432.329 214.224L435.184 214.341L473.989 214.313C402.542 228.623 348.716 291.709 348.716 367.367C348.716 385.785 351.905 403.459 357.762 419.864L52.2223 419.849C23.3808 419.849 0 396.352 0 367.367V52.4813C0 23.4968 23.3808 0 52.2223 0H574.443ZM402.843 282.339L438.463 317.946L439.413 318.721C431.029 329.65 425.224 342.662 422.909 356.846L422.205 362.218L421.787 362.178L370.732 362.175C372.604 331.825 384.37 304.151 402.843 282.339ZM573.832 316.957L610.228 280.524C628.308 301.134 640.296 327.222 643.378 355.974L643.902 362.175L592.847 362.178L592.429 362.218C590.912 346.867 585.336 332.708 576.789 320.83L573.832 316.957ZM185.004 297.393H85.7779C76.8596 297.393 69.6289 304.623 69.6289 313.541C69.6289 321.773 75.7899 328.567 83.7521 329.563L85.7779 329.689H185.004C193.922 329.689 201.152 322.459 201.152 313.541C201.152 304.623 193.922 297.393 185.004 297.393ZM333.933 297.393H234.707C225.789 297.393 218.559 304.623 218.559 313.541C218.559 321.773 224.719 328.567 232.682 329.563L234.707 329.689H333.933C342.851 329.689 350.081 322.459 350.081 313.541C350.081 304.623 342.851 297.393 333.933 297.393ZM498.761 234.147L498.771 285.418L498.804 285.62C480.575 287.422 464.027 294.947 451.042 306.374L450.806 306.109L450.559 305.85L414.681 270.004C437.093 249.381 466.406 236.143 498.761 234.147ZM515.87 285.202V234.147C545.408 235.968 572.409 247.159 593.941 264.784L598.173 268.394L561.787 304.786C550.32 295.304 536.34 288.756 520.994 286.289L515.829 285.62L515.87 285.202ZM535.61 214.307L626.673 214.322L626.68 269.814C604.191 241.756 572.212 221.631 535.61 214.307ZM664.385 63.5385L784.693 141.697L664.385 219.857L664.357 179.345L435.184 179.353V104.042L664.357 104.034L664.385 63.5385ZM156.667 69.9749C146.263 69.9749 136.925 74.5608 130.545 81.8312C124.186 74.5608 114.848 69.9749 104.445 69.9749C85.2169 69.9749 69.6289 85.639 69.6289 104.962C69.6289 124.285 85.2169 139.95 104.445 139.95C114.848 139.95 124.186 135.363 130.565 128.093C136.924 135.363 146.263 139.95 156.667 139.95C175.894 139.95 191.481 124.285 191.481 104.962C191.481 85.639 175.894 69.9749 156.667 69.9749Z" fill="#ef679a"/>
</svg>
