<svg width="696" height="503" viewBox="0 0 696 503" fill="none" xmlns="http://www.w3.org/2000/svg">
<path d="M0.857178 43.0267C0.857178 19.6785 19.7857 0.928467 42.9554 0.928467H653.134C676.482 0.928467 695.232 19.857 695.232 43.0267C695.232 66.3749 676.304 85.1249 653.134 85.1249H42.9554C19.7857 85.3035 0.857178 66.3749 0.857178 43.0267Z" fill="#ef679a"/>
<path d="M0.857178 251.777C0.857178 228.429 19.7857 209.679 42.9554 209.679H453.938C477.286 209.679 496.036 228.607 496.036 251.777C496.036 275.125 477.107 293.875 453.938 293.875H42.9554C19.7857 294.098 0.857178 275.17 0.857178 251.777Z" fill="#ef679a"/>
<path d="M0.857178 460.571C0.857178 437.223 19.7857 418.473 42.9554 418.473H653.134C676.482 418.473 695.232 437.402 695.232 460.571C695.232 483.92 676.304 502.67 653.134 502.67H42.9554C19.7857 502.848 0.857178 483.92 0.857178 460.571Z" fill="#ef679a"/>
</svg>
