<svg xmlns="http://www.w3.org/2000/svg" xml:space="preserve" viewBox="0 0 1000 1000"><path fill="#717171" d="M794 206.7c-49 0-49 73.5 0 73.5 24.5 0 122.5 98 122.5 220.5s-98 220.5-122.5 220.5c-49 0-49 73.5 0 73.5 74.3 0 196-122.5 196-294s-121.7-294-196-294zM670.7 329.2c-48.2 0-48.2 73.5.8 73.5 0 0 49 24.5 49 98s-49 98-49 98c-49 0-49 73.5 0 73.5 49.8 0 122.5-73.5 122.5-171.5s-73.5-171.5-123.3-171.5zm-195.2-245C181.5 329.2 206 304.7 206 304.7H59c-49 0-49 50.5-49 49v294c0 49 50.5 49 49 49h147s-24.5-24.5 269.5 220.5c22.1 18.4 98 49 98-24.5v-784c0-73.5-71.4-46.7-98-24.5z"/></svg>