<svg width="800" height="563" viewBox="0 0 800 563" fill="none" xmlns="http://www.w3.org/2000/svg">
<path d="M496.376 482.706L496.854 482.136C509.906 493.634 526.143 501.565 544.059 504.418L549.483 505.119L549.47 562.161C516.069 560.086 485.612 547.072 461.595 526.638L456.878 522.454L496.376 482.706ZM623.55 479.767L662.083 518.514C662.612 519.04 663.142 519.463 663.729 519.803C640.181 542.719 609.228 557.985 574.831 561.617L568.342 562.161L568.33 505.119C589.618 502.993 608.822 493.741 623.55 479.767ZM464.623 420.289L465.139 420.243C466.714 436.27 472.258 451.124 480.768 463.797L484.097 468.444L483.051 469.303L443.819 508.772C424.817 486.21 412.256 457.988 408.988 426.976L408.431 420.288L464.623 420.289ZM652.674 420.243L653.188 420.289L709.38 420.288C707.526 450.537 696.855 478.386 679.921 501.268L676.198 506.094L675.409 505.111L635.938 465.409C645.074 452.391 651.032 436.955 652.674 420.243ZM558.907 334.99C600.539 334.99 634.288 368.936 634.288 410.811C634.288 452.686 600.539 486.632 558.907 486.632C517.274 486.632 483.524 452.686 483.524 410.811C483.524 368.936 517.274 334.99 558.907 334.99ZM632.859 0C664.633 0 690.391 26.037 690.391 58.155L690.378 76.4972L585.854 76.513L585.85 70.4075C585.85 48.9955 568.678 31.6373 547.495 31.6373C540.107 31.6373 532.876 33.7942 526.672 37.8484L394.131 124.457C376.342 136.081 371.242 160.082 382.743 178.064C385.69 182.673 389.572 186.596 394.131 189.575L485.54 249.315C425.777 276.417 384.177 336.863 384.177 407.083C384.177 427.492 387.692 447.076 394.145 465.255L57.5327 465.238C25.7583 465.238 0 439.201 0 407.083V58.155C0 26.037 25.7583 0 57.5327 0H632.859ZM443.808 312.862L483.051 352.319L484.097 353.177C474.86 365.288 468.465 379.706 465.914 395.424L465.139 401.377L464.623 401.333L408.433 401.33C410.495 367.698 423.457 337.032 443.808 312.862ZM632.167 351.201L672.281 310.851C692.201 333.689 705.407 362.597 708.804 394.458L709.38 401.33L653.188 401.333L652.674 401.377C651.002 384.357 644.852 368.661 635.428 355.494L632.167 351.201ZM203.714 329.544H94.6038C84.7214 329.544 76.7103 337.555 76.7103 347.437C76.7103 356.559 83.5361 364.087 92.3591 365.191L94.6038 365.331H203.714C213.596 365.331 221.607 357.32 221.607 347.437C221.607 337.555 213.596 329.544 203.714 329.544ZM367.788 329.544H258.678C248.796 329.544 240.785 337.555 240.785 347.437C240.785 356.559 247.61 364.087 256.433 365.191L258.678 365.331H367.788C377.67 365.331 385.681 357.32 385.681 347.437C385.681 337.555 377.67 329.544 367.788 329.544ZM549.47 259.461L549.491 316.299L549.526 316.498C529.448 318.494 511.222 326.829 496.909 339.497L496.651 339.202L496.376 338.915L456.857 299.188C481.545 276.341 513.832 261.674 549.47 259.461ZM568.329 316.09L568.342 259.461C600.735 261.473 630.36 273.773 654.026 293.153L659.004 297.413L618.914 337.734C606.282 327.229 590.881 319.973 573.976 317.24L568.287 316.498L568.329 316.09ZM590.071 237.474L690.401 237.492L690.409 298.983C665.631 267.89 630.397 245.589 590.071 237.474ZM547.49 70.4075L547.522 115.281L800 115.29V198.743L547.522 198.733L547.49 243.625L414.948 157.016L547.49 70.4075ZM172.598 77.5397C161.136 77.5397 150.848 82.6214 143.82 90.6778C136.815 82.6214 126.527 77.5397 115.065 77.5397C93.8825 77.5397 76.7103 94.8973 76.7103 116.309C76.7103 137.721 93.8825 155.079 115.065 155.079C126.527 155.079 136.814 149.997 143.842 141.941C150.848 149.997 161.136 155.079 172.598 155.079C193.781 155.079 210.953 137.721 210.953 116.309C210.953 94.8973 193.781 77.5397 172.598 77.5397Z" fill="url(#paint0_linear_1_5)"/>
<defs>
<linearGradient id="paint0_linear_1_5" x1="400" y1="0" x2="400" y2="562.161" gradientUnits="userSpaceOnUse">
<stop stop-color="#ef679a"/>
<stop offset="1" stop-color="#ef679a"/>
</linearGradient>
</defs>
</svg>
